<?xml version="1.0" encoding="utf-8"?>
<!-- Generator: Adobe Illustrator 16.2.1, SVG Export Plug-In . SVG Version: 6.00 Build 0)  -->
<!DOCTYPE svg PUBLIC "-//W3C//DTD SVG 1.1//EN" "http://www.w3.org/Graphics/SVG/1.1/DTD/svg11.dtd">
<svg version="1.1" id="Layer_1" xmlns="http://www.w3.org/2000/svg" xmlns:xlink="http://www.w3.org/1999/xlink" x="0px" y="0px"
	 width="70px" height="53.767px" viewBox="0 0 70 53.767" enable-background="new 0 0 70 53.767" xml:space="preserve">
<g>
	<path d="M26.756-0.233c-14.801,0-26.8,12.088-26.8,27c0,14.911,11.999,27,26.8,27c14.8,0,26.8-12.089,26.8-27
		C53.557,11.855,41.557-0.233,26.756-0.233z M26.756,38.82c-6.608,0-11.964-5.395-11.964-12.054c0-6.658,5.356-12.054,11.964-12.054
		c6.608,0,11.964,5.396,11.964,12.054C38.721,33.425,33.365,38.82,26.756,38.82z"/>
	<path d="M61.756,37.245c-4.528,0-8.199,3.698-8.199,8.261c0,4.562,3.671,8.261,8.199,8.261s8.201-3.699,8.201-8.261
		C69.957,40.943,66.284,37.245,61.756,37.245z"/>
</g>
</svg>
